<svg width="80" height="93" viewBox="0 0 80 93" fill="none" xmlns="http://www.w3.org/2000/svg">
<path d="M20.3433 0.942322H3.49497C1.94474 0.942322 0.686829 2.2862 0.686829 3.94238V89.9423C0.686829 91.5984 1.94474 92.9423 3.49497 92.9423H20.3433C21.8935 92.9423 23.1514 91.5984 23.1514 89.9423V3.94238C23.1514 2.2862 21.8937 0.942322 20.3433 0.942322Z" fill="#E9C46A"/>
<path d="M48.4242 48.9422H31.5757C30.0255 48.9422 28.7675 50.286 28.7675 51.9422V89.9421C28.7675 91.5983 30.0255 92.9421 31.5757 92.9421H48.4242C49.9744 92.9421 51.2323 91.5983 51.2323 89.9421V51.9422C51.2323 50.286 49.9744 48.9422 48.4242 48.9422Z" fill="#2A9D8F"/>
<path d="M76.5049 24.9422H59.6566C58.1063 24.9422 56.8484 26.2861 56.8484 27.9423V89.9421C56.8484 91.5983 58.1063 92.9421 59.6566 92.9421H76.5051C78.0553 92.9421 79.3132 91.5983 79.3132 89.9421V27.9423C79.313 26.2861 78.0553 24.9422 76.5049 24.9422Z" fill="#E76F51"/>
</svg>
