<svg width="99" height="99" viewBox="0 0 99 99" fill="none" xmlns="http://www.w3.org/2000/svg">
<path d="M23.6031 23.3098L39.6311 17.2042" stroke="#2A9D8F" stroke-width="6"/>
<path d="M57.4398 22.0234L77.4151 43.6375" stroke="#2A9D8F" stroke-width="6"/>
<path d="M78.4982 59.3633L57.5682 78.0061" stroke="#2A9D8F" stroke-width="6"/>
<path d="M20.2799 37.4957L43.3212 77.1365" stroke="#2A9D8F" stroke-width="6"/>
<path d="M23.86 74.8356L39.2637 81.8833" stroke="#2A9D8F" stroke-width="6"/>
<path d="M18.4073 60.1423L44.1659 23.346" stroke="#2A9D8F" stroke-width="6"/>
<path d="M24.2457 32.8214L42.2749 42.8766" stroke="#2A9D8F" stroke-width="6"/>
<path d="M58.578 47.7682L74.3489 48.9458" stroke="#2A9D8F" stroke-width="6"/>
<path d="M49.9308 55.3413L49.9491 74.8356" stroke="#2A9D8F" stroke-width="6"/>
<path d="M49.9491 25.0309C55.8504 25.0309 60.6344 20.3101 60.6344 14.4866C60.6344 8.66317 55.8504 3.94232 49.9491 3.94232C44.0478 3.94232 39.2638 8.66317 39.2638 14.4866C39.2638 20.3101 44.0478 25.0309 49.9491 25.0309Z" stroke="#E9C46A" stroke-width="6"/>
<path d="M85.0343 61.5737C90.9356 61.5737 95.7196 56.8529 95.7196 51.0294C95.7196 45.2059 90.9356 40.4851 85.0343 40.4851C79.133 40.4851 74.349 45.2059 74.349 51.0294C74.349 56.8529 79.133 61.5737 85.0343 61.5737Z" stroke="#E9C46A" stroke-width="6"/>
<path d="M49.9491 95.9423C55.8504 95.9423 60.6344 91.2215 60.6344 85.398C60.6344 79.5745 55.8504 74.8537 49.9491 74.8537C44.0478 74.8537 39.2638 79.5745 39.2638 85.398C39.2638 91.2215 44.0478 95.9423 49.9491 95.9423Z" stroke="#E9C46A" stroke-width="6"/>
<path d="M14.4049 80.4701C20.3062 80.4701 25.0902 75.7493 25.0902 69.9258C25.0902 64.1023 20.3062 59.3815 14.4049 59.3815C8.50357 59.3815 3.7196 64.1023 3.7196 69.9258C3.7196 75.7493 8.50357 80.4701 14.4049 80.4701Z" stroke="#E9C46A" stroke-width="6"/>
<path d="M14.4049 39.2349C20.3062 39.2349 25.0902 34.5141 25.0902 28.6906C25.0902 22.8672 20.3062 18.1463 14.4049 18.1463C8.50357 18.1463 3.7196 22.8672 3.7196 28.6906C3.7196 34.5141 8.50357 39.2349 14.4049 39.2349Z" stroke="#E9C46A" stroke-width="6"/>
<path d="M49.9306 55.3232C54.6963 55.3232 58.5597 51.5108 58.5597 46.808C58.5597 42.1052 54.6963 38.2928 49.9306 38.2928C45.165 38.2928 41.3016 42.1052 41.3016 46.808C41.3016 51.5108 45.165 55.3232 49.9306 55.3232Z" stroke="#E9C46A" stroke-width="6"/>
</svg>
