<svg width="93" height="93" viewBox="0 0 93 93" fill="none" xmlns="http://www.w3.org/2000/svg">
<path d="M0.780396 75.7381C0.780396 80.5221 2.46706 84.5701 5.8404 87.8821C9.21373 91.1941 13.2924 92.8808 18.0764 92.9421H29.5764V81.4421H18.0764C16.4817 81.4421 15.1017 80.8901 13.9364 79.7861C12.7711 78.6821 12.2191 77.3328 12.2804 75.7381V35.4421H81.2804V75.7381C81.2804 77.3328 80.7284 78.6821 79.6244 79.7861C78.5204 80.8901 77.1711 81.4421 75.5764 81.4421H64.0764V92.9421H75.5764C80.2991 92.9421 84.3471 91.2555 87.7204 87.8821C91.0937 84.5088 92.7804 80.4608 92.7804 75.7381V18.2381C92.7804 13.4541 91.0937 9.37547 87.7204 6.00214C84.3471 2.62881 80.2991 0.942139 75.5764 0.942139H18.0764C13.2924 0.942139 9.21373 2.62881 5.8404 6.00214C2.46706 9.37547 0.780396 13.4541 0.780396 18.2381L0.780396 75.7381ZM12.2804 29.7381V18.2381C12.2804 16.6435 12.8324 15.2941 13.9364 14.1901C15.0404 13.0861 16.4204 12.5035 18.0764 12.4421H75.5764C77.1097 12.4421 78.4591 13.0248 79.6244 14.1901C80.7897 15.3555 81.3417 16.7048 81.2804 18.2381V29.7381H12.2804ZM18.0764 23.9421H23.7804V18.2381H18.0764V23.9421ZM29.5764 69.9421H41.0764V92.9421H52.5764V69.9421H64.0764L46.7804 46.9421L29.5764 69.9421ZM29.5764 23.9421H35.2804V18.2381H29.5764V23.9421ZM41.0764 23.9421H75.5764V18.2381H41.0764V23.9421Z" fill="#F4A261"/>
<path d="M46.7804 46.9421L64.0288 69.9153H29.532L46.7804 46.9421Z" fill="#2A9D8F"/>
<rect x="40.9666" y="66.2309" width="11.6277" height="26.7113" fill="#2A9D8F"/>
</svg>
